<svg xmlns="http://www.w3.org/2000/svg" viewBox="0 0 32 32">
<path d="M29.42,7c-.06-.74.19-1.71-.13-2.36-.47-.93-2.12-.79-2.92-1.43-.68-.54-1.05-1.89-1.92-2.15-.93-.27-2.07.68-3.08.62-.82-.05-1.71-.72-2.52-.67-1.14.06-1.51,1.79-2.39,2.33-.71.44-2.08.45-2.6,1.07-.61.74-.11,2.08-.36,2.98-.25.88-1.44,1.57-1.5,2.53-.07,1.13,1.42,1.86,1.57,2.96.1.81-.24,1.92.22,2.63.51.78,2.04.7,2.81,1.28.69.52,1.19,2.07,2.06,2.21,1.04.16,1.95-.71,3.01-.63.9.06,1.74.8,2.7.63.85-.16,1.35-1.69,2.03-2.2.63-.47,1.55-.48,2.25-.81,1.35-.64.55-2.22.85-3.33.17-.66.92-1.23,1.26-1.82.96-1.67-1.21-2.32-1.32-3.8h-.02Z" fill="#ff69b4">
<animate accumulate="none" additive="replace" attributeName="fill" calcMode="linear" dur="4s" fill="remove" repeatCount="indefinite" restart="always" values="hotpink;hotpink;pink;deepskyblue;hotpink;"/>
</path>
<polygon points="20.3 14.44 16.9 11.39 18.14 10.05 20.06 11.79 24.64 6.23 24.75 6.24 26.13 7.32 20.3 14.44" fill="#fff"/>
</svg>