<svg id="Respect Motoko-Ghosts-Orign" xmlns="http://www.w3.org/2000/svg" viewBox="0 0 50 50">
<defs>
<linearGradient id="a" x1="0" x2="0" y1="1" y2="0" gradientUnits="objectBoundingBox">
<stop offset="0" stop-color="#28aae1"/>
<stop offset="1" stop-color="#2a3b8e"/>
</linearGradient>
<linearGradient id="b" x1="0" x2="0" y1="1" y2="0" gradientUnits="objectBoundingBox">
<stop offset="0" stop-color="#ea2c7b"/>
<stop offset=".15" stop-color="#ea2c7b"/>
<stop offset=".85" stop-color="#2a3b8e"/>
<stop offset="1" stop-color="#2a3b8e"/>
</linearGradient>
<linearGradient id="c" x1="0" x2="1" y1="1" y2="0" gradientUnits="objectBoundingBox">
<stop offset="0" stop-color="#fff" stop-opacity="0"/>
<stop offset="1" stop-color="#fff"/>
</linearGradient>
<linearGradient id="d" x1="0" x2="0" y1="1" y2="0" gradientUnits="objectBoundingBox">
<stop offset="0" stop-color="#ea2c7b"/>
<stop offset="1" stop-color="#8f288c"/>
</linearGradient>
<linearGradient id="e" x1="0" x2="0" y1="1" y2="0" gradientUnits="objectBoundingBox">
<stop offset="0" stop-color="#ea2c7b"/>
<stop offset="1" stop-color="#8f288c"/>
</linearGradient>
</defs>
<path fill="none" d="M0 0h50v50H0z"/>
<path fill="#3dc5ee" d="M40.01 28.77c.05.65-.66 1.23-1.57 1.29s-3.09-.32-3.14-.97 2.07-1.32 2.98-1.39 1.68.41 1.73 1.06ZM42.86 21.83c0 .47-.53.84-1.18.84s-2.19-.37-2.19-.84 1.54-.85 2.19-.85 1.18.37 1.18.84Z"/>
<path fill="#3dc5ee" d="M20.57 12.08c7.94-.24 14.2 3.12 16.51 4.3 2.76 1.41 3.44 2.41 3.24 3.23-.35 1.49-6.73 1.17-6.75 1.7s5.84 1.38 5.63 3.6c-.21 2.23-6.87 2.64-7.25 3.39-.38.75 4.73 2.05 4.86 3.58.08.98-5.98 3.34-14.39 4.08C9.76 37.09 6.77 27 7.41 22.03c.46-3.56 3.14-9.64 13.16-9.95Z"/>
<path fill="url(#a)" d="M19.63 12.4c7.74-.24 13.85 3.05 16.11 4.2 2.69 1.37 2.84 2.07 2.65 2.87-.35 1.46-7.58.82-7.59 1.33-.02.52 6.53 2.04 6.32 4.21-.2 2.17-6.87 2.19-7.24 2.93-.37.73 4.69 2.74 4.5 3.68s-4.95 3.64-13.15 4.37c-11.18.56-14.56-8.54-13.94-13.39.44-3.47 2.56-9.91 12.34-10.21Z"/>
<path fill="url(#b)" d="M20.16 35.85c3.29-.39 8.03-1.47 7.98-4.54-.04-2.54-5.14-2.38-5.51-5.56-.22-1.87 6.13-6.84 6.13-8.57 0-2.87-3.71-4.4-7.5-4.78-.53-.02-1.07-.02-1.62 0-9.79.3-11.91 6.73-12.35 10.2-.57 4.42 2.2 12.39 11.19 13.32.55.01 1.11-.01 1.67-.08h.01Z"/>
<path fill="#3a2416" fill-rule="evenodd" d="M22.21 21.84c0-3.19-3.57-5.78-7.96-5.78-1.95 0-3.74.51-5.12 1.36-1.18 1.81-1.65 3.75-1.84 5.19-.05.43-.08.89-.07 1.37v.28c0 .11.01.22.02.33 1.35 1.8 3.98 3.02 7 3.02 4.39 0 7.96-2.59 7.96-5.78Z"/>
<path fill="url(#c)" d="M21.28 13.85c.06.48-1.65.81-3.93 1.08s-4.44.64-4.49.16c-.06-.48 2.02-1.62 4.29-1.88 2.27-.27 4.08.17 4.13.64Z"/>
<path fill="url(#d)" d="M17.97 21.08c-.02 1.42-.73 2.55-1.59 2.54-.85-.01-1.53-1.17-1.5-2.59.02-1.42.73-2.55 1.59-2.54s1.53 1.17 1.5 2.59Z"/>
<path fill="#ffef30" fill-rule="evenodd" d="M16.86 18.58c-.61.4-1.03 1.34-1.03 2.45s.43 2.07 1.04 2.46c.62-.33 1.08-1.28 1.09-2.42.02-1.19-.45-2.2-1.11-2.5Z"/>
<path fill="url(#e)" d="M10.98 21.22c-.02 1.42-.6 2.56-1.28 2.55-.69-.01-1.22-1.17-1.2-2.59s.6-2.56 1.28-2.55c.69.01 1.22 1.17 1.2 2.59Z"/>
<path fill="#ff0" fill-rule="evenodd" d="M10.18 18.78c-.57.42-.96 1.34-.96 2.4s.39 1.97.95 2.4c.46-.38.79-1.29.81-2.36.02-1.13-.32-2.09-.8-2.44Z"/>
</svg>