<svg id="Respect Motoko-Ghosts psychedelic" xmlns="http://www.w3.org/2000/svg" viewBox="0 0 50 50">
<defs>
<linearGradient id="a" x1="14.06" x2="15.55" y1="42.72" y2="42.72" gradientTransform="scale(-1.24 1.24) rotate(-83.25 -17.35 44.18)" gradientUnits="userSpaceOnUse">
<stop offset="0" stop-color="#fff" stop-opacity="0"/>
<stop offset="1" stop-color="#fff"/>
</linearGradient>
<linearGradient id="b" x1="19.76" x2="21.25" y1="30.62" y2="30.62" gradientTransform="matrix(0 -3.63 -3.63 0 129.29 96.77)" gradientUnits="userSpaceOnUse">
<stop offset="0" stop-color="#ea2c7b"/>
<stop offset="1" stop-color="#8f288c"/>
</linearGradient>
<linearGradient id="c" x1="19.75" x2="21.24" y1="31.26" y2="31.26" gradientTransform="matrix(0 -3.63 -3.63 0 124.56 96.87)" gradientUnits="userSpaceOnUse">
<stop offset="0" stop-color="#ea2c7b"/>
<stop offset="1" stop-color="#8f288c"/>
</linearGradient>
</defs>
<path fill="none" d="M0 0h50v50H0z"/>
<path fill="#dbf32f" d="M45.64 30.42c.05.68-.69 1.29-1.65 1.36s-3.26-.33-3.31-1.02c-.05-.68 2.18-1.4 3.14-1.46s1.78.43 1.82 1.12Zm1.58-6.91c0 .49-.56.89-1.24.89-.69 0-2.31-.39-2.31-.88s1.62-.89 2.31-.89 1.24.39 1.25.89Z"/>
<path fill="#ff6e69" d="M22.87 11.93c8.74-.27 15.71 4.01 18.26 5.33 3.04 1.57 3.79 2.68 3.58 3.59-.39 1.66-6.07 1.44-6.09 2.03-.02.59 5.09 1.39 4.86 3.86-.23 2.47-6.28 2.64-6.7 3.47-.42.84 4.56 1.58 4.38 3.8-.15 1.97-6.91 4.18-16.18 5-13.96 1.24-18.19-9.93-17.49-15.45.5-3.95 4.32-11.3 15.37-11.64Z"/>
<path fill="#dbf32f" d="M22.5 12.87c8.36-.26 14.96 3.29 17.4 4.54 2.91 1.49 3.62 2.54 3.42 3.41-.37 1.57-7.09 1.23-7.11 1.79s6.15 1.45 5.94 3.8c-.22 2.35-7.24 2.78-7.64 3.58-.4.79 5.25 2.25 5.12 3.77-.23 1.44-6.3 3.52-15.17 4.3C11.1 39.24 7.96 28.6 8.63 23.37c.48-3.75 3.31-10.16 13.87-10.49Z"/>
<path fill="#00b8ea" d="M21.51 13.21c8.16-.25 14.6 3.21 16.98 4.42 2.84 1.45 2.99 2.19 2.79 3.03-.36 1.54-7.99.86-8 1.41-.02.55 6.88 2.16 6.67 4.44-.21 2.29-7.24 2.31-7.63 3.08-.39.77 4.95 2.89 4.74 3.88s-5.21 3.84-13.86 4.6c-11.77.58-15.48-9.01-14.83-14.11.47-3.66 2.84-10.44 13.15-10.76Z"/>
<path fill="url(#a)" d="M23.25 14.74c.06.5-1.74.86-4.14 1.14s-4.68.67-4.74.17c-.06-.5 2.12-1.7 4.52-1.99 2.4-.28 4.3.18 4.35.68Z"/>
<path fill="#e5f66f" fill-rule="evenodd" d="M19.6 32.88h-8.68a12.47 12.47 0 0 0 6.42 4.54h2.26v-4.54Z"/>
<path fill="#31ebf7" d="M13.46 26.95h14.12v4.54H13.46z"/>
<path fill="#ff6e69" fill-rule="evenodd" d="M35.78 32.18c-1.38-.9-3.39-1.9-3.48-2.45H21.66v4.54h14.12v-2.08Z" data-name="effect4"/>
<path fill="#ffa96b" fill-rule="evenodd" d="M36.95 21.75h-5.69v4.54h8.68c-.25-2.16-6.68-3.68-6.66-4.21 0-.26 1.79-.24 3.68-.32Z"/>
<path fill="#31ebf7" fill-rule="evenodd" d="M27.87 18.63h12.31a13.6 13.6 0 0 0-1.69-.99c-1.53-.78-4.75-2.49-9.02-3.54h-1.59v4.54Z"/>
<path fill="#cbf32f" fill-rule="evenodd" d="M27.29 17.7H10.96a12.58 12.58 0 0 0-2.6 6.27c-.16 1.23-.05 2.72.35 4.27h18.58V17.69Z"/>
<path fill="url(#b)" d="M19.76 22.37c-.02 1.49-.77 2.69-1.67 2.68-.9-.01-1.61-1.24-1.59-2.73.02-1.49.77-2.69 1.67-2.68s1.61 1.24 1.59 2.73Z"/>
<path fill="#ffc74e" fill-rule="evenodd" d="M18.58 19.74c-.63.42-1.08 1.42-1.08 2.58s.45 2.17 1.09 2.59c.65-.35 1.14-1.34 1.16-2.54.02-1.26-.48-2.31-1.17-2.63Z"/>
<path fill="url(#c)" d="M12.39 22.51c-.02 1.49-.63 2.7-1.35 2.68-.72-.01-1.29-1.23-1.26-2.73.02-1.49.63-2.7 1.35-2.68.72.01 1.29 1.23 1.26 2.73Z"/>
<path fill="#ffc74e" fill-rule="evenodd" d="M11.55 19.95c-.6.45-1.01 1.4-1.01 2.52s.41 2.08 1.01 2.52c.48-.4.83-1.36.85-2.48.02-1.19-.34-2.19-.84-2.56Z"/>
<path fill="#e42f9d" fill-rule="evenodd" d="M13.02 24.5s.33.59 1.29.55c.96-.04 1.26-.52 1.26-.52s-.05.94-1.26.91c-1.21-.03-1.29-.94-1.29-.94Z"/>
</svg>