<svg data-name="safari-pinned-tab" xmlns="http://www.w3.org/2000/svg" viewBox="0 0 512 512">
<path fill="#00AA66" d="m347.2 108.99-4.85-27.42c-6.61-36.73-27.91-51.66-65.13-45.05L71.07 72.76c-36.97 6.61-52.64 27.91-46.03 64.64l36.73 207.62c5.06 28.09 18.88 43.38 41.62 46.09V193.46c0-53.62 31.58-84.47 84.96-84.47H347.2ZM291.8 252.94h-17.44v15.29h17.44c4.42 0 7.71-3.41 7.71-7.84 0-4.17-3.29-7.46-7.71-7.46ZM291.8 278.23h-17.44v15.29h17.44c4.42 0 7.71-3.41 7.71-7.84 0-4.17-3.29-7.46-7.71-7.46ZM291.8 227.66h-17.44v15.29h17.44c4.42 0 7.71-3.41 7.71-7.84 0-4.17-3.29-7.46-7.71-7.46Z"/>
<path fill="#00CC66" d="M397.69 137.64H188.35c-37.46 0-56.56 18.36-56.56 55.82v210.56c0 37.22 19.1 55.82 56.56 55.82h209.34c37.71 0 56.31-18.61 56.31-55.82V193.46c0-37.46-18.61-55.82-56.31-55.82Zm-30.3 278.87H216.72c-18.71 0-31.6-14.92-31.6-31.73 0-5.31 1.01-10.49 5.44-17.7l53.47-87.47v-66.96c-7.47-1.18-13.02-7.48-13.02-15.33 0-8.72 6.7-15.42 15.55-15.42h91.01c8.85 0 15.55 6.7 15.55 15.42 0 7.86-5.55 14.16-13.02 15.33v66.96l53.47 87.47c4.42 7.2 5.44 12.39 5.44 17.7 0 16.81-12.89 31.73-31.6 31.73Z"/>
</svg>